{
  "source": "C:\\Users\\Peter\\Desktop\\stuff\\MIUN\\quantitative_research\\video_compression\\videos\\BVI-HD\\BVI-HD_CDVL_videos\\ORIG\\Boxing_1920x1080_30fps.mp4",
  "output": "C:\\Users\\Peter\\Desktop\\stuff\\MIUN\\quantitative_research\\video_compression\\compressed_videos\\BVI-HD\\vp9\\2.5\\Boxing_1920x1080_30fps_vp9.webm",
  "codec": "vp9",
  "ok": "Input #0, mov,mp4,m4a,3gp,3g2,mj2, from 'C:\\Users\\Peter\\Desktop\\stuff\\MIUN\\quantitative_research\\video_compression\\videos\\BVI-HD\\BVI-HD_CDVL_videos\\ORIG\\Boxing_1920x1080_30fps.mp4':\n  Metadata:\n    major_brand     : isom\n    minor_version   : 512\n    compatible_brands: isomiso2avc1mp41\n    encoder         : Lavf54.28.101\n  Duration: 00:00:05.00, start: 0.000000, bitrate: 238363 kb/s\n  Stream #0:0[0x1](und): Video: h264 (High 4:4:4 Predictive) (avc1 / 0x31637661), yuv420p(progressive), 1920x1080, 238359 kb/s, 30 fps, 30 tbr, 30 tbn (default)\n    Metadata:\n      handler_name    : VideoHandler\n      vendor_id       : [0][0][0][0]\n[out#0/webm @ 0000024c7fcb1340] Codec AVOption b:a (set bitrate (in bits/s)) has not been used for any stream. The most likely reason is either wrong type (e.g. a video option with no video streams) or that it is a private option of some decoder which was not actually used for any stream.\nStream mapping:\n  Stream #0:0 -> #0:0 (h264 (native) -> vp9 (libvpx-vp9))\nPress [q] to stop, [?] for help\n[libvpx-vp9 @ 0000024c0060b040] v1.15.2-100-g40561f514\nOutput #0, webm, to 'C:\\Users\\Peter\\Desktop\\stuff\\MIUN\\quantitative_research\\video_compression\\compressed_videos\\BVI-HD\\vp9\\2.5\\Boxing_1920x1080_30fps_vp9.webm':\n  Metadata:\n    major_brand     : isom\n    minor_version   : 512\n    compatible_brands: isomiso2avc1mp41\n    encoder         : Lavf62.3.100\n  Stream #0:0(und): Video: vp9, yuv420p(tv, progressive), 1920x1080, q=2-31, 2500 kb/s, 30 fps, 1k tbn (default)\n    Metadata:\n      encoder         : Lavc62.11.100 libvpx-vp9\n      handler_name    : VideoHandler\n      vendor_id       : [0][0][0][0]\n    Side data:\n      cpb: bitrate max/min/avg: 0/0/0 buffer size: 2500000 vbv_delay: N/A\nframe=    0 fps=0.0 q=0.0 size=       0KiB time=N/A bitrate=N/A speed=N/A elapsed=0:00:00.52    \nframe=    6 fps=5.3 q=51.0 size=       1KiB time=00:00:00.20 bitrate=  25.4kbits/s speed=0.176x elapsed=0:00:01.13    \nframe=   12 fps=7.2 q=46.0 size=       1KiB time=00:00:00.40 bitrate=  12.7kbits/s speed=0.241x elapsed=0:00:01.66    \nframe=   17 fps=7.8 q=43.0 size=       1KiB time=00:00:00.56 bitrate=   9.0kbits/s speed=0.259x elapsed=0:00:02.18    \nframe=   21 fps=7.8 q=27.0 size=       1KiB time=00:00:00.70 bitrate=   7.2kbits/s speed=0.259x elapsed=0:00:02.70    \nframe=   26 fps=8.0 q=45.0 size=       1KiB time=00:00:00.86 bitrate=   5.9kbits/s speed=0.268x elapsed=0:00:03.23    \nframe=   30 fps=8.0 q=46.0 size=       1KiB time=00:00:01.00 bitrate=   5.1kbits/s speed=0.265x elapsed=0:00:03.77    \nframe=   36 fps=8.4 q=43.0 size=       1KiB time=00:00:01.20 bitrate=   4.2kbits/s speed=0.28x elapsed=0:00:04.28    \nframe=   40 fps=8.3 q=41.0 size=       1KiB time=00:00:01.33 bitrate=   3.8kbits/s speed=0.277x elapsed=0:00:04.81    \nframe=   46 fps=8.6 q=45.0 size=       1KiB time=00:00:01.53 bitrate=   3.3kbits/s speed=0.287x elapsed=0:00:05.33    \nframe=   51 fps=8.7 q=26.0 size=       1KiB time=00:00:01.70 bitrate=   3.0kbits/s speed=0.29x elapsed=0:00:05.86    \nframe=   56 fps=8.8 q=44.0 size=       1KiB time=00:00:01.86 bitrate=   2.7kbits/s speed=0.292x elapsed=0:00:06.38    \nframe=   61 fps=8.8 q=27.0 size=       1KiB time=00:00:02.03 bitrate=   2.5kbits/s speed=0.294x elapsed=0:00:06.91    \nframe=   66 fps=8.8 q=44.0 size=       1KiB time=00:00:02.20 bitrate=   2.3kbits/s speed=0.295x elapsed=0:00:07.46    \nframe=   71 fps=8.9 q=26.0 size=       1KiB time=00:00:02.36 bitrate=   2.1kbits/s speed=0.296x elapsed=0:00:07.99    \nframe=   77 fps=9.0 q=44.0 size=       1KiB time=00:00:02.56 bitrate=   2.0kbits/s speed=0.301x elapsed=0:00:08.53    \nframe=   81 fps=8.9 q=26.0 size=       1KiB time=00:00:02.70 bitrate=   1.9kbits/s speed=0.298x elapsed=0:00:09.07    \nframe=   86 fps=9.0 q=47.0 size=       1KiB time=00:00:02.86 bitrate=   1.8kbits/s speed=0.299x elapsed=0:00:09.59    \nframe=   90 fps=8.9 q=47.0 size=       1KiB time=00:00:03.00 bitrate=   1.7kbits/s speed=0.297x elapsed=0:00:10.11    \nframe=   95 fps=8.9 q=47.0 size=       1KiB time=00:00:03.16 bitrate=   1.6kbits/s speed=0.297x elapsed=0:00:10.65    \nframe=  100 fps=8.9 q=47.0 size=       1KiB time=00:00:03.33 bitrate=   1.5kbits/s speed=0.297x elapsed=0:00:11.20    \nframe=  105 fps=8.9 q=47.0 size=       1KiB time=00:00:03.50 bitrate=   1.4kbits/s speed=0.298x elapsed=0:00:11.75    \nframe=  110 fps=9.0 q=47.0 size=       1KiB time=00:00:03.66 bitrate=   1.4kbits/s speed=0.298x elapsed=0:00:12.28    \nframe=  114 fps=8.9 q=47.0 size=       1KiB time=00:00:03.80 bitrate=   1.3kbits/s speed=0.296x elapsed=0:00:12.82    \nframe=  119 fps=8.9 q=48.0 size=       1KiB time=00:00:03.96 bitrate=   1.3kbits/s speed=0.298x elapsed=0:00:13.33    \nframe=  123 fps=8.9 q=48.0 size=       1KiB time=00:00:04.10 bitrate=   1.2kbits/s speed=0.296x elapsed=0:00:13.85    \nframe=  126 fps=8.8 q=48.0 size=       1KiB time=00:00:04.20 bitrate=   1.2kbits/s speed=0.292x elapsed=0:00:14.38    \nframe=  126 fps=8.5 q=48.0 size=       1KiB time=00:00:04.20 bitrate=   1.2kbits/s speed=0.282x elapsed=0:00:14.91    \nframe=  126 fps=8.2 q=48.0 size=       1KiB time=00:00:04.20 bitrate=   1.2kbits/s speed=0.272x elapsed=0:00:15.44    \nframe=  126 fps=7.9 q=48.0 size=       1KiB time=00:00:04.20 bitrate=   1.2kbits/s speed=0.263x elapsed=0:00:15.95    \nframe=  126 fps=7.7 q=48.0 size=       1KiB time=00:00:04.20 bitrate=   1.2kbits/s speed=0.255x elapsed=0:00:16.47    \n[out#0/webm @ 0000024c7fcb1340] video:1268KiB audio:0KiB subtitle:0KiB other streams:0KiB global headers:0KiB muxing overhead: 0.135577%\nframe=  150 fps=9.0 q=45.0 Lsize=    1270KiB time=00:00:05.00 bitrate=2081.1kbits/s speed=0.299x elapsed=0:00:16.71    \n",
  "seconds": 16.969135999679565,
  "probe_out": {}
}